<svg width="149" height="19" viewBox="0 0 149 19" fill="none" xmlns="http://www.w3.org/2000/svg">
<path d="M5.11567 4.56589H0V1.1783H14.1821V4.56589H9.06638V18.5581H5.11567V4.56589Z" fill="#0F0920"/>
<path d="M13.3823 6.62791H17.1811V8.54264H17.2317C17.637 7.8062 18.1181 7.25797 18.6753 6.89793C19.2324 6.52153 19.9331 6.33333 20.7773 6.33333C20.9967 6.33333 21.2162 6.34152 21.4357 6.35788C21.6552 6.37425 21.8578 6.40698 22.0435 6.45607V9.81912C21.7734 9.7373 21.5032 9.68002 21.2331 9.64729C20.9799 9.59819 20.7097 9.57364 20.4227 9.57364C19.6967 9.57364 19.1227 9.67183 18.7006 9.86822C18.2785 10.0646 17.9493 10.3428 17.7129 10.7028C17.4934 11.0465 17.3499 11.4638 17.2824 11.9548C17.2149 12.4457 17.1811 12.9858 17.1811 13.5749V18.5581H13.3823V6.62791Z" fill="#0F0920"/>
<path d="M31.4195 17.0607H31.3689C30.9468 17.699 30.3812 18.1572 29.6721 18.4354C28.9799 18.7136 28.2455 18.8527 27.4688 18.8527C26.8948 18.8527 26.3376 18.7709 25.7974 18.6072C25.274 18.4599 24.8097 18.2308 24.4045 17.9199C23.9993 17.609 23.6785 17.2244 23.4421 16.7661C23.2058 16.3079 23.0876 15.7761 23.0876 15.1705C23.0876 14.4832 23.2142 13.9022 23.4675 13.4276C23.7376 12.9531 24.0921 12.5603 24.5311 12.2494C24.987 11.9384 25.5019 11.7011 26.0759 11.5375C26.65 11.3575 27.2409 11.2265 27.8487 11.1447C28.4734 11.0629 29.0896 11.0138 29.6974 10.9974C30.3221 10.9811 30.8962 10.9729 31.4195 10.9729C31.4195 10.3183 31.1747 9.80276 30.6851 9.42636C30.2124 9.03359 29.6468 8.83721 28.9883 8.83721C28.3636 8.83721 27.7896 8.96813 27.2662 9.22997C26.7597 9.47545 26.3039 9.81912 25.8987 10.261L23.8727 8.24806C24.5818 7.60982 25.409 7.13523 26.3545 6.82429C27.3 6.49699 28.2792 6.33333 29.2922 6.33333C30.4065 6.33333 31.3182 6.47244 32.0273 6.75065C32.7533 7.01249 33.3274 7.40525 33.7494 7.92894C34.1884 8.45263 34.4923 9.09905 34.6612 9.86822C34.83 10.621 34.9144 11.4966 34.9144 12.4948V18.5581H31.4195V17.0607ZM30.4825 13.3295C30.1955 13.3295 29.8325 13.3458 29.3935 13.3786C28.9714 13.3949 28.5578 13.4604 28.1526 13.5749C27.7643 13.6895 27.4266 13.8613 27.1396 14.0904C26.8695 14.3196 26.7344 14.6387 26.7344 15.0478C26.7344 15.4897 26.9286 15.817 27.3169 16.0297C27.7052 16.2425 28.1104 16.3488 28.5325 16.3488C28.9039 16.3488 29.2585 16.2997 29.5961 16.2015C29.9507 16.1034 30.263 15.9643 30.5332 15.7842C30.8033 15.6042 31.0143 15.3751 31.1663 15.0969C31.3351 14.8187 31.4195 14.4914 31.4195 14.115V13.3295H30.4825Z" fill="#0F0920"/>
<path d="M36.0062 6.62791H40.1088L43.2238 14.7287H43.2745L46.1615 6.62791H49.9856L45.1232 18.5581H41.0965L36.0062 6.62791Z" fill="#0F0920"/>
<path d="M63.0195 16.4961C62.4117 17.2489 61.6435 17.8299 60.7149 18.239C59.7864 18.6481 58.824 18.8527 57.8279 18.8527C56.8824 18.8527 55.9876 18.7054 55.1434 18.4109C54.3161 18.1163 53.5901 17.699 52.9655 17.1589C52.3577 16.6025 51.8765 15.9397 51.5219 15.1705C51.1674 14.4014 50.9901 13.5422 50.9901 12.593C50.9901 11.6438 51.1674 10.7847 51.5219 10.0155C51.8765 9.24634 52.3577 8.59173 52.9655 8.05168C53.5901 7.49526 54.3161 7.06977 55.1434 6.77519C55.9876 6.48062 56.8824 6.33333 57.8279 6.33333C58.7058 6.33333 59.4993 6.48062 60.2084 6.77519C60.9344 7.06977 61.5422 7.49526 62.0318 8.05168C62.5383 8.59173 62.9267 9.24634 63.1968 10.0155C63.4669 10.7847 63.602 11.6438 63.602 12.593V13.7468H54.7889C54.9408 14.4505 55.27 15.0151 55.7765 15.4406C56.283 15.8497 56.9077 16.0543 57.6506 16.0543C58.2753 16.0543 58.7987 15.9233 59.2208 15.6615C59.6597 15.3833 60.0396 15.0314 60.3604 14.6059L63.0195 16.4961ZM59.8032 11.2429C59.8201 10.621 59.6091 10.0891 59.1701 9.64729C58.7311 9.20543 58.1655 8.9845 57.4733 8.9845C57.0512 8.9845 56.6798 9.04996 56.359 9.18088C56.0382 9.3118 55.7597 9.48363 55.5233 9.69638C55.3038 9.89276 55.1265 10.1301 54.9915 10.4083C54.8733 10.6701 54.8057 10.9483 54.7889 11.2429H59.8032Z" fill="#0F0920"/>
<path d="M65.9628 0H69.7615V18.5581H65.9628V0Z" fill="#0F0920"/>
<path d="M96.6989 17.3307C95.534 17.9199 94.3184 18.3454 93.0521 18.6072C91.7859 18.8691 90.4943 19 89.1774 19C87.7761 19 86.4845 18.7873 85.3026 18.3618C84.1208 17.9363 83.0994 17.3307 82.2383 16.5452C81.3773 15.7433 80.7019 14.7778 80.2123 13.6486C79.7396 12.5194 79.5032 11.2593 79.5032 9.86822C79.5032 8.47717 79.7396 7.21705 80.2123 6.08786C80.7019 4.95866 81.3773 4.00129 82.2383 3.21576C83.0994 2.41387 84.1208 1.80017 85.3026 1.37468C86.4845 0.949182 87.7761 0.736435 89.1774 0.736435C90.6125 0.736435 91.9294 0.908269 93.1281 1.25194C94.3437 1.57924 95.4074 2.15202 96.3191 2.97028L93.5333 5.91602C92.993 5.37597 92.3852 4.96684 91.7099 4.68863C91.0346 4.41042 90.1904 4.27132 89.1774 4.27132C88.3332 4.27132 87.565 4.41042 86.8728 4.68863C86.1975 4.96684 85.615 5.3596 85.1254 5.86693C84.6357 6.35788 84.2559 6.94703 83.9857 7.63437C83.7325 8.32171 83.6059 9.06632 83.6059 9.86822C83.6059 10.6865 83.7325 11.4393 83.9857 12.1266C84.2559 12.7976 84.6357 13.3867 85.1254 13.8941C85.615 14.385 86.1975 14.7696 86.8728 15.0478C87.565 15.326 88.3332 15.4651 89.1774 15.4651C90.0384 15.4651 90.7813 15.3751 91.406 15.1951C92.0307 14.9987 92.5287 14.8023 92.9002 14.6059V11.7829H89.6839V8.24806H96.6989V17.3307Z" fill="#0F0920"/>
<path d="M111.548 18.5581H107.901V16.938H107.85C107.715 17.1671 107.538 17.3962 107.318 17.6253C107.116 17.8544 106.862 18.059 106.559 18.239C106.255 18.419 105.908 18.5663 105.52 18.6809C105.132 18.7954 104.71 18.8527 104.254 18.8527C103.292 18.8527 102.506 18.7136 101.899 18.4354C101.308 18.1408 100.843 17.7399 100.506 17.2326C100.185 16.7252 99.9655 16.1279 99.8474 15.4406C99.7461 14.7532 99.6954 14.0086 99.6954 13.2067V6.62791H103.494V12.4703C103.494 12.814 103.503 13.174 103.519 13.5504C103.553 13.9104 103.629 14.2459 103.747 14.5568C103.882 14.8678 104.077 15.1214 104.33 15.3178C104.6 15.5142 104.98 15.6124 105.47 15.6124C105.959 15.6124 106.356 15.5306 106.66 15.3669C106.964 15.1869 107.192 14.9578 107.344 14.6796C107.512 14.385 107.622 14.0577 107.673 13.6977C107.723 13.3376 107.749 12.9612 107.749 12.5685V6.62791H111.548V18.5581Z" fill="#0F0920"/>
<path d="M114.288 6.62791H118.087V18.5581H114.288V6.62791ZM113.984 2.87209C113.984 2.28295 114.195 1.78381 114.617 1.37468C115.056 0.949182 115.58 0.736435 116.188 0.736435C116.795 0.736435 117.31 0.949182 117.732 1.37468C118.171 1.78381 118.391 2.28295 118.391 2.87209C118.391 3.46124 118.171 3.96856 117.732 4.39406C117.31 4.80319 116.795 5.00775 116.188 5.00775C115.58 5.00775 115.056 4.80319 114.617 4.39406C114.195 3.96856 113.984 3.46124 113.984 2.87209Z" fill="#0F0920"/>
<path d="M133.732 18.5581H130.237V16.9871H130.186C130.034 17.1998 129.832 17.4208 129.579 17.6499C129.342 17.8626 129.055 18.059 128.718 18.239C128.397 18.419 128.034 18.5663 127.629 18.6809C127.24 18.7954 126.835 18.8527 126.413 18.8527C125.501 18.8527 124.674 18.7054 123.931 18.4109C123.188 18.0999 122.547 17.6744 122.006 17.1344C121.483 16.5779 121.078 15.9233 120.791 15.1705C120.504 14.4177 120.36 13.5913 120.36 12.6912C120.36 11.8566 120.487 11.0629 120.74 10.3101C121.01 9.54091 121.382 8.86176 121.854 8.27261C122.344 7.68346 122.935 7.21705 123.627 6.87338C124.319 6.51335 125.105 6.33333 125.982 6.33333C126.776 6.33333 127.51 6.45607 128.186 6.70155C128.878 6.93066 129.444 7.33161 129.883 7.90439H129.933V0H133.732V18.5581ZM130.237 12.593C130.237 11.6929 129.967 10.9647 129.427 10.4083C128.903 9.85185 128.16 9.57364 127.198 9.57364C126.236 9.57364 125.484 9.85185 124.944 10.4083C124.421 10.9647 124.159 11.6929 124.159 12.593C124.159 13.4931 124.421 14.2214 124.944 14.7778C125.484 15.3342 126.236 15.6124 127.198 15.6124C128.16 15.6124 128.903 15.3342 129.427 14.7778C129.967 14.2214 130.237 13.4931 130.237 12.593Z" fill="#0F0920"/>
<path d="M148.418 16.4961C147.81 17.2489 147.042 17.8299 146.113 18.239C145.184 18.6481 144.222 18.8527 143.226 18.8527C142.28 18.8527 141.386 18.7054 140.541 18.4109C139.714 18.1163 138.988 17.699 138.363 17.1589C137.756 16.6025 137.274 15.9397 136.92 15.1705C136.565 14.4014 136.388 13.5422 136.388 12.593C136.388 11.6438 136.565 10.7847 136.92 10.0155C137.274 9.24634 137.756 8.59173 138.363 8.05168C138.988 7.49526 139.714 7.06977 140.541 6.77519C141.386 6.48062 142.28 6.33333 143.226 6.33333C144.104 6.33333 144.897 6.48062 145.606 6.77519C146.332 7.06977 146.94 7.49526 147.43 8.05168C147.936 8.59173 148.325 9.24634 148.595 10.0155C148.865 10.7847 149 11.6438 149 12.593V13.7468H140.187C140.339 14.4505 140.668 15.0151 141.175 15.4406C141.681 15.8497 142.306 16.0543 143.049 16.0543C143.673 16.0543 144.197 15.9233 144.619 15.6615C145.058 15.3833 145.438 15.0314 145.758 14.6059L148.418 16.4961ZM145.201 11.2429C145.218 10.621 145.007 10.0891 144.568 9.64729C144.129 9.20543 143.564 8.9845 142.871 8.9845C142.449 8.9845 142.078 9.04996 141.757 9.18088C141.436 9.3118 141.158 9.48363 140.921 9.69638C140.702 9.89276 140.525 10.1301 140.389 10.4083C140.271 10.6701 140.204 10.9483 140.187 11.2429H145.201Z" fill="#0F0920"/>
</svg>
